<svg xmlns="http://www.w3.org/2000/svg" viewBox="0 0 120.8 70"><defs><style>.cls-1{fill:#0842f8;}</style></defs><g id="Layer_2" data-name="Layer 2"><g id="Layer_1-2" data-name="Layer 1"><g id="AAA"><path class="cls-1" d="M116.29,62.07Q113,58.52,109.81,55c-3.6-4-7.22-7.88-10.78-11.86a5,5,0,0,0-1.94-1.4q-7-2.79-13.92-5.63c-4.79-2-9.57-3.9-14.33-5.92A6.72,6.72,0,0,1,67,28.69c-2.49-2.43-3.56-5.67-4.85-8.77-1.19-2.86,2.3-7.94,2.3-7.94S61,1,60.47,0H60C59.41,1,56,12,56,12s3.49,5.08,2.3,7.94C57,23,56,26.26,53.46,28.69a6.76,6.76,0,0,1-1.89,1.46c-4.75,2-9.54,4-14.32,5.92S28,39.84,23.32,41.7a5,5,0,0,0-1.93,1.4C17.83,47.08,14.21,51,10.61,55L4.13,62.07C2.81,63.52,0,67,0,67s4.43-1.2,6.31-1.76q10-3,20.08-5.92a5.73,5.73,0,0,0,2.95-2.07c1.93-2.35,4-4.59,6.08-6.8a3.18,3.18,0,0,1,1.86-1c4-.25,8-.38,12.06-.56a3.21,3.21,0,0,1,2.27.74c2.11,1.7,4.28,3.31,6.39,5,1,.8,1,1.1-.06,1.87-1.17.9-2.36,1.77-3.51,2.69a.68.68,0,0,0-.2.63.72.72,0,0,0,.53.39c1.73,0,3.46,0,5.19,0v0h.52v0c1.73,0,3.46,0,5.18,0a.74.74,0,0,0,.54-.39.71.71,0,0,0-.2-.63c-1.15-.92-2.34-1.79-3.51-2.69-1-.77-1.06-1.07-.06-1.87,2.11-1.7,4.28-3.31,6.39-5a3.21,3.21,0,0,1,2.27-.74c4,.18,8,.31,12.06.56a3.24,3.24,0,0,1,1.86,1c2.08,2.21,4.15,4.45,6.07,6.8a5.77,5.77,0,0,0,3,2.07q10,2.94,20.08,5.92c1.89.56,6.32,1.76,6.32,1.76S117.61,63.52,116.29,62.07ZM34.39,50.29c-1.16,1.39-4.44,5-6.1,6.73a6.6,6.6,0,0,1-2.63,1.7c-5.9,1.81-16.64,5-20.35,6.1a.26.26,0,0,1-.23-.46c3.39-2.69,14-11,17-13.33a5.25,5.25,0,0,1,3-1.08l3.78-.13c1.75,0,4.12-.14,5.3-.12A.36.36,0,0,1,34.39,50.29Zm23-24.51,2.67-6.59a.14.14,0,0,1,.13-.07.15.15,0,0,1,.13.07l3.09,6.59c.11.12-.15.25-.34.16a7.72,7.72,0,0,0-2.67-.85,7.71,7.71,0,0,0-2.68.85C57.56,26,57.29,25.9,57.41,25.78ZM81.75,45.57c-2.76,0-9.43-.28-11-.28a3.75,3.75,0,0,0-2,.72c-2.47,1.75-4.92,6.21-7.3,8.08a2.07,2.07,0,0,1-2.58,0c-2.38-1.87-4.83-6.33-7.31-8.08a3.69,3.69,0,0,0-2-.72c-1.52,0-8.18.24-10.94.28a.37.37,0,0,1-.23-.67c3.46-2.55,16.41-15,20.51-17.78a2.23,2.23,0,0,1,1.26-.39,2.25,2.25,0,0,1,1.26.39c4.1,2.74,17,15.23,20.51,17.78A.37.37,0,0,1,81.75,45.57ZM115.1,64.82c-3.7-1.1-14.45-4.29-20.34-6.1A6.71,6.71,0,0,1,92.12,57c-1.66-1.69-4.93-5.34-6.1-6.73a.36.36,0,0,1,.27-.59c1.17,0,3.55.07,5.3.12l3.77.13a5.3,5.3,0,0,1,3,1.08c3,2.29,13.58,10.64,17,13.33A.26.26,0,0,1,115.1,64.82Z"/></g></g></g></svg>

