<svg xmlns="http://www.w3.org/2000/svg" viewBox="0 0 120.8 91"><defs><style>.cls-1{fill:#0842f8;}</style></defs><g id="Layer_2" data-name="Layer 2"><g id="Layer_1-2" data-name="Layer 1"><g id="AAA"><path class="cls-1" d="M116.29,62.07Q113,58.52,109.81,55c-3.6-4-7.22-7.88-10.78-11.86a5,5,0,0,0-1.94-1.4q-7-2.79-13.92-5.63c-4.79-2-9.57-3.9-14.33-5.92A6.72,6.72,0,0,1,67,28.69c-2.49-2.43-3.56-5.67-4.85-8.77-1.19-2.86,2.3-7.94,2.3-7.94S61,1,60.47,0H60C59.41,1,56,12,56,12s3.49,5.08,2.3,7.94C57,23,56,26.26,53.46,28.69a6.76,6.76,0,0,1-1.89,1.46c-4.75,2-9.54,4-14.32,5.92S28,39.84,23.32,41.7a5,5,0,0,0-1.93,1.4C17.83,47.08,14.21,51,10.61,55L4.13,62.07C2.81,63.52,0,67,0,67s4.43-1.2,6.31-1.76q10-3,20.08-5.92a5.73,5.73,0,0,0,2.95-2.07c1.93-2.35,4-4.59,6.08-6.8a3.18,3.18,0,0,1,1.86-1c4-.25,8-.38,12.06-.56a3.21,3.21,0,0,1,2.27.74c2.11,1.7,4.28,3.31,6.39,5,1,.8,1,1.1-.06,1.87-1.17.9-2.36,1.77-3.51,2.69a.68.68,0,0,0-.2.63.72.72,0,0,0,.53.39c1.73,0,3.46,0,5.19,0v0h.52v0c1.73,0,3.46,0,5.18,0a.74.74,0,0,0,.54-.39.71.71,0,0,0-.2-.63c-1.15-.92-2.34-1.79-3.51-2.69-1-.77-1.06-1.07-.06-1.87,2.11-1.7,4.28-3.31,6.39-5a3.21,3.21,0,0,1,2.27-.74c4,.18,8,.31,12.06.56a3.24,3.24,0,0,1,1.86,1c2.08,2.21,4.15,4.45,6.07,6.8a5.77,5.77,0,0,0,3,2.07q10,2.94,20.08,5.92c1.89.56,6.32,1.76,6.32,1.76S117.61,63.52,116.29,62.07ZM34.39,50.29c-1.16,1.39-4.44,5-6.1,6.73a6.6,6.6,0,0,1-2.63,1.7c-5.9,1.81-16.64,5-20.35,6.1a.26.26,0,0,1-.23-.46c3.39-2.69,14-11,17-13.33a5.25,5.25,0,0,1,3-1.08l3.78-.13c1.75,0,4.12-.14,5.3-.12A.36.36,0,0,1,34.39,50.29Zm23-24.51,2.67-6.59a.14.14,0,0,1,.13-.07.15.15,0,0,1,.13.07l3.09,6.59c.11.12-.15.25-.34.16a7.72,7.72,0,0,0-2.67-.85,7.71,7.71,0,0,0-2.68.85C57.56,26,57.29,25.9,57.41,25.78ZM81.75,45.57c-2.76,0-9.43-.28-11-.28a3.75,3.75,0,0,0-2,.72c-2.47,1.75-4.92,6.21-7.3,8.08a2.07,2.07,0,0,1-2.58,0c-2.38-1.87-4.83-6.33-7.31-8.08a3.69,3.69,0,0,0-2-.72c-1.52,0-8.18.24-10.94.28a.37.37,0,0,1-.23-.67c3.46-2.55,16.41-15,20.51-17.78a2.23,2.23,0,0,1,1.26-.39,2.25,2.25,0,0,1,1.26.39c4.1,2.74,17,15.23,20.51,17.78A.37.37,0,0,1,81.75,45.57ZM115.1,64.82c-3.7-1.1-14.45-4.29-20.34-6.1A6.71,6.71,0,0,1,92.12,57c-1.66-1.69-4.93-5.34-6.1-6.73a.36.36,0,0,1,.27-.59c1.17,0,3.55.07,5.3.12l3.77.13a5.3,5.3,0,0,1,3,1.08c3,2.29,13.58,10.64,17,13.33A.26.26,0,0,1,115.1,64.82Z"/><path d="M.15,80.53,6.1,70.24H7.88L14,80.53H11.86l-1.34-2.4H3.41l-1.32,2.4Zm4.07-3.89H9.69L7,71.75Z"/><path d="M15.84,80.53V70.24h1.95V79h8v1.55Z"/><path d="M27.62,80.53V70.24h8.69a2.51,2.51,0,0,1,1.72.48,2,2,0,0,1,.54,1.54v1.18a1.64,1.64,0,0,1-.43,1.24,2.25,2.25,0,0,1-1.36.53,2.07,2.07,0,0,1,1.38.61,1.93,1.93,0,0,1,.48,1.38v1.32A1.72,1.72,0,0,1,37.9,80a4,4,0,0,1-2.24.49Zm9-7v-1a.78.78,0,0,0-.24-.66,1.52,1.52,0,0,0-.87-.18h-6v2.64h6a1.49,1.49,0,0,0,.89-.18A.82.82,0,0,0,36.64,73.56ZM29.57,75.9V79h6a1.28,1.28,0,0,0,.92-.26,1.26,1.26,0,0,0,.26-.9v-.81a1,1,0,0,0-1.18-1.16Z"/><path d="M40.07,80.53l6-10.29H47.8l6.1,10.29H51.79l-1.34-2.4H43.33L42,80.53Zm4.08-3.89h5.47l-2.74-4.89Z"/><path d="M59.38,71.77v8.76H57.45V71.77H52.59V70.24H64.27v1.53Z"/><path d="M66,80.53V70.24h8.28a2.41,2.41,0,0,1,1.65.47,2,2,0,0,1,.51,1.52v2.3A2,2,0,0,1,75.9,76a2.41,2.41,0,0,1-1.65.46H72.88l4.54,4H74.83l-4.1-4H67.91v4Zm7.42-8.78H67.91v3.32h5.48a1.26,1.26,0,0,0,.88-.22A1.14,1.14,0,0,0,74.5,74V72.79a1.12,1.12,0,0,0-.24-.81A1.28,1.28,0,0,0,73.39,71.75Z"/><path d="M79.39,72.68a2.67,2.67,0,0,1,.53-1.92,2.86,2.86,0,0,1,2-.52h7.44a2.85,2.85,0,0,1,2,.52,2.62,2.62,0,0,1,.54,1.92V78.1A2.67,2.67,0,0,1,91.35,80a2.92,2.92,0,0,1-2,.51H81.91a2.92,2.92,0,0,1-2-.5,2.69,2.69,0,0,1-.52-1.93ZM81.33,79h8.6V71.77h-8.6Z"/><path d="M104.26,71.77H97v2.67h6.61a2.92,2.92,0,0,1,2,.5,2.68,2.68,0,0,1,.53,1.93V78.1a2.69,2.69,0,0,1-.52,1.93,2.85,2.85,0,0,1-2,.5H97.39a2.91,2.91,0,0,1-2-.5,2.68,2.68,0,0,1-.53-1.93v-.28l1.78-.37V79h7.77V76.09H97.78a2.84,2.84,0,0,1-2-.51,2.65,2.65,0,0,1-.53-1.92v-1a2.67,2.67,0,0,1,.53-1.92,2.78,2.78,0,0,1,2-.52h5.72a3,3,0,0,1,2,.5,2.28,2.28,0,0,1,.55,1.75v.25l-1.77.38Z"/><path d="M118.52,71.77H111.3v2.67h6.61a2.92,2.92,0,0,1,2,.5,2.68,2.68,0,0,1,.53,1.93V78.1a2.69,2.69,0,0,1-.52,1.93,2.85,2.85,0,0,1-2,.5h-6.26a2.92,2.92,0,0,1-2-.5,2.68,2.68,0,0,1-.53-1.93v-.28l1.78-.37V79h7.77V76.09H112a2.84,2.84,0,0,1-2-.51,2.66,2.66,0,0,1-.52-1.92v-1a2.68,2.68,0,0,1,.52-1.92,2.78,2.78,0,0,1,2-.52h5.72a3,3,0,0,1,2,.5,2.32,2.32,0,0,1,.54,1.75v.25l-1.77.38Z"/><path d="M96.87,88.6l-1,2.26h-.61l2.93-6.59h.64l3,6.59h-.63l-1-2.26Zm3.1-.53c-.91-2-1.33-2.9-1.48-3.31h0c-.13.4-.63,1.59-1.38,3.31Z"/><path d="M103.63,87.87v3h-.58V84.27H106c1.27,0,2.19.55,2.19,1.74a1.48,1.48,0,0,1-1.24,1.58c.52.13,1.06.5,1.06,1.63v.27a6.45,6.45,0,0,0,.08,1.37h-.59a5.75,5.75,0,0,1-.07-1.32v-.22c0-1.13-.44-1.45-1.7-1.45Zm0-.54h2.16c1.17,0,1.76-.4,1.76-1.31s-.59-1.21-1.71-1.21h-2.21Z"/><path d="M111.55,84.81h-2.62v-.54h5.82v.54h-2.62v6h-.58Z"/><path d="M115.86,89a2.08,2.08,0,0,0,2.29,1.51c1.44,0,2-.6,2-1.32s-.4-1.22-2.26-1.53-2.33-.87-2.33-1.77c0-1.08,1-1.73,2.39-1.73,2.08,0,2.52,1.1,2.6,1.71H120c-.15-.51-.46-1.19-2-1.19-1,0-1.78.36-1.78,1.15,0,.62.27,1,1.9,1.31,2.31.38,2.69,1.11,2.69,2S120,91,118.13,91c-1.72,0-2.65-.79-2.87-2Z"/></g></g></g></svg>